<?xml version="1.0" encoding="iso-8859-1"?>
<!-- Uploaded to: SVG Repo, www.svgrepo.com, Generator: SVG Repo Mixer Tools -->
<svg fill="#000000" version="1.1" id="Layer_1" xmlns="http://www.w3.org/2000/svg" xmlns:xlink="http://www.w3.org/1999/xlink" 
	 viewBox="0 0 512 512" xml:space="preserve">
<g>
	<g>
		<path d="M468.32,53.08H43.68C19.595,53.08,0,72.675,0,96.76V415.24c0,24.085,19.595,43.68,43.68,43.68H468.32
			c24.085,0,43.68-19.595,43.68-43.68V96.76C512,72.675,492.405,53.08,468.32,53.08z M495.413,415.24
			c0,14.939-12.154,27.093-27.093,27.093h-27.093v-18.246c0-4.58-3.713-8.294-8.294-8.294c-4.58,0-8.294,3.713-8.294,8.294v18.246
			H352.76v-18.246c0-4.58-3.713-8.294-8.294-8.294c-4.58,0-8.294,3.713-8.294,8.294v18.246h-71.879v-18.246
			c0-4.58-3.713-8.294-8.294-8.294c-4.58,0-8.294,3.713-8.294,8.294v18.246h-71.879v-18.246c0-4.58-3.713-8.294-8.294-8.294
			c-4.58,0-8.294,3.713-8.294,8.294v18.246H87.361v-18.246c0-4.58-3.713-8.294-8.294-8.294c-4.58,0-8.294,3.713-8.294,8.294v18.246
			H43.68c-14.939,0-27.093-12.154-27.093-27.093V96.76c0-14.939,12.154-27.093,27.093-27.093H468.32
			c14.939,0,27.093,12.154,27.093,27.093V415.24z"/>
	</g>
</g>
<g>
	<g>
		<path d="M432.933,106.16c-14.329,0-25.987,11.658-25.987,25.987c0,1.908,0.212,3.765,0.605,5.558l-46.249,27.749
			c-4.538-3.87-10.417-6.214-16.835-6.214c-14.329,0-25.987,11.658-25.987,25.987c0,6.939,2.739,13.247,7.187,17.913L260.13,327.658
			c-1.346-0.216-2.725-0.332-4.13-0.332c-5.765,0-11.095,1.889-15.409,5.077l-48.129-33.69c0.685-2.326,1.058-4.783,1.058-7.326
			c0-14.329-11.658-25.987-25.987-25.987c-14.329,0-25.987,11.658-25.987,25.987c0,3.66,0.765,7.145,2.136,10.307l-51.867,46.68
			c-3.77-2.132-8.118-3.355-12.749-3.355c-14.329,0-25.987,11.658-25.987,25.987s11.658,25.987,25.987,25.987
			s25.987-11.658,25.987-25.987c0-3.66-0.765-7.145-2.136-10.307l51.867-46.68c1.473,0.834,3.035,1.527,4.669,2.062
			c-0.135,0.594-0.213,1.21-0.213,1.846v17.693c0,4.58,3.713,8.294,8.294,8.294c4.58,0,8.294-3.713,8.294-8.294v-17.693
			c0-0.636-0.078-1.252-0.213-1.846c2.656-0.871,5.125-2.156,7.328-3.784l48.129,33.69c-0.685,2.326-1.058,4.783-1.058,7.326
			c0,11.43,7.42,21.152,17.693,24.622V388.7c0,4.58,3.713,8.294,8.294,8.294c4.58,0,8.294-3.713,8.294-8.294v-10.764
			c10.273-3.47,17.693-13.193,17.693-24.622c0-6.939-2.739-13.247-7.187-17.913l61.373-116.608v10.668
			c0,4.58,3.713,8.294,8.294,8.294c4.58,0,8.294-3.713,8.294-8.294v-19.611c10.273-3.47,17.693-13.193,17.693-24.622
			c0-1.908-0.212-3.765-0.605-5.558l46.249-27.749c2.488,2.121,5.379,3.781,8.541,4.849v19.611c0,4.58,3.713,8.294,8.294,8.294
			c4.58,0,8.294-3.713,8.294-8.294v-19.611c10.273-3.47,17.693-13.193,17.693-24.622C458.92,117.818,447.262,106.16,432.933,106.16z
			 M79.067,380.406c-5.183,0-9.4-4.217-9.4-9.4s4.217-9.4,9.4-9.4s9.4,4.217,9.4,9.4S84.25,380.406,79.067,380.406z
			 M167.533,300.786c-5.183,0-9.4-4.217-9.4-9.4s4.217-9.4,9.4-9.4c5.183,0,9.4,4.216,9.4,9.4S172.716,300.786,167.533,300.786z
			 M256,362.713c-5.183,0-9.4-4.216-9.4-9.4s4.217-9.4,9.4-9.4s9.4,4.217,9.4,9.4S261.183,362.713,256,362.713z M344.466,194.626
			c-5.183,0-9.4-4.217-9.4-9.4c0-5.183,4.216-9.4,9.4-9.4s9.4,4.217,9.4,9.4C353.866,190.41,349.65,194.626,344.466,194.626z
			 M432.933,141.546c-5.183,0-9.4-4.217-9.4-9.4s4.217-9.4,9.4-9.4s9.4,4.216,9.4,9.4S438.116,141.546,432.933,141.546z"/>
	</g>
</g>
<g>
	<g>
		<path d="M344.466,362.713c-4.58,0-8.294,3.713-8.294,8.294V388.7c0,4.58,3.713,8.294,8.294,8.294c4.58,0,8.294-3.713,8.294-8.294
			v-17.693C352.76,366.426,349.047,362.713,344.466,362.713z"/>
	</g>
</g>
<g>
	<g>
		<path d="M344.466,256.553c-4.58,0-8.294,3.713-8.294,8.294v17.693c0,4.58,3.713,8.294,8.294,8.294c4.58,0,8.294-3.713,8.294-8.294
			v-17.693C352.76,260.266,349.047,256.553,344.466,256.553z"/>
	</g>
</g>
<g>
	<g>
		<path d="M344.466,309.633c-4.58,0-8.294,3.713-8.294,8.294v17.693c0,4.58,3.713,8.294,8.294,8.294c4.58,0,8.294-3.713,8.294-8.294
			v-17.693C352.76,313.346,349.047,309.633,344.466,309.633z"/>
	</g>
</g>
<g>
	<g>
		<path d="M167.533,362.713c-4.58,0-8.294,3.713-8.294,8.294V388.7c0,4.58,3.713,8.294,8.294,8.294c4.58,0,8.294-3.713,8.294-8.294
			v-17.693C175.827,366.426,172.114,362.713,167.533,362.713z"/>
	</g>
</g>
<g>
	<g>
		<path d="M432.933,362.713c-4.58,0-8.294,3.713-8.294,8.294V388.7c0,4.58,3.713,8.294,8.294,8.294c4.58,0,8.294-3.713,8.294-8.294
			v-17.693C441.227,366.426,437.513,362.713,432.933,362.713z"/>
	</g>
</g>
<g>
	<g>
		<path d="M432.933,256.553c-4.58,0-8.294,3.713-8.294,8.294v17.693c0,4.58,3.713,8.294,8.294,8.294c4.58,0,8.294-3.713,8.294-8.294
			v-17.693C441.227,260.266,437.513,256.553,432.933,256.553z"/>
	</g>
</g>
<g>
	<g>
		<path d="M432.933,203.473c-4.58,0-8.294,3.713-8.294,8.294v17.693c0,4.58,3.713,8.294,8.294,8.294c4.58,0,8.294-3.713,8.294-8.294
			v-17.693C441.227,207.186,437.513,203.473,432.933,203.473z"/>
	</g>
</g>
<g>
	<g>
		<path d="M432.933,309.633c-4.58,0-8.294,3.713-8.294,8.294v17.693c0,4.58,3.713,8.294,8.294,8.294c4.58,0,8.294-3.713,8.294-8.294
			v-17.693C441.227,313.346,437.513,309.633,432.933,309.633z"/>
	</g>
</g>
</svg>